<svg width="20" height="20" viewBox="0 0 20 20" fill="none" xmlns="http://www.w3.org/2000/svg">
<path d="M16.5859 2.16643H15.9834V1.50904C15.9834 0.676599 15.3266 0 14.5183 0C13.7094 0 13.0531 0.676599 13.0531 1.50904V2.16588H11.5496V1.50904C11.5496 0.676599 10.8927 0 10.0845 0C9.27616 0 8.61931 0.676599 8.61931 1.50904V2.16588H7.11576V1.50904C7.11576 0.676599 6.45891 0 5.65062 0C4.84232 0 4.18547 0.676599 4.18547 1.50904V2.16588H3.41614C2.13044 2.16588 1.08398 3.21234 1.08398 4.49804V17.6678C1.08398 18.9536 2.13044 20 3.41614 20H16.5859C17.8722 20 18.9181 18.9536 18.9181 17.6678V4.49804C18.9181 3.21288 17.8717 2.16643 16.5859 2.16643ZM13.8763 1.50904C13.8763 1.13096 14.1643 0.823113 14.5183 0.823113C14.8728 0.823113 15.1603 1.13096 15.1603 1.50904V4.19568C15.1603 4.57376 14.8728 4.88161 14.5183 4.88161C14.1643 4.88161 13.8763 4.57376 13.8763 4.19568V1.50904ZM9.44242 1.50904C9.44242 1.13096 9.73051 0.823113 10.0845 0.823113C10.4384 0.823113 10.7265 1.13096 10.7265 1.50904V4.19568C10.7265 4.57376 10.4384 4.88161 10.0845 4.88161C9.73051 4.88161 9.44242 4.57376 9.44242 4.19568V1.50904ZM5.00804 1.50904C5.00804 1.13096 5.29613 0.823113 5.65007 0.823113C6.00401 0.823113 6.2921 1.13096 6.2921 1.50904V4.19568C6.2921 4.57376 6.00401 4.88161 5.65007 4.88161C5.29613 4.88161 5.00804 4.57376 5.00804 4.19568V1.50904ZM17.5462 17.6684C17.5462 18.1979 17.1155 18.6287 16.5859 18.6287H3.41614C2.8866 18.6287 2.45584 18.1979 2.45584 17.6684V5.59607H17.5462V17.6684Z" fill="#092C6D"/>
<path d="M6.2119 8.02588H3.69043V10.2697H6.2119V8.02588Z" fill="#092C6D"/>
<path d="M9.57793 8.02588H7.05591V10.2697H9.57793V8.02588Z" fill="#092C6D"/>
<path d="M12.9463 8.02588H10.4248V10.2697H12.9463V8.02588Z" fill="#092C6D"/>
<path d="M16.3123 8.02588H13.7903V10.2697H16.3123V8.02588Z" fill="#092C6D"/>
<path d="M6.2119 11.0209H3.69043V13.263H6.2119V11.0209Z" fill="#092C6D"/>
<path d="M9.57793 11.0209H7.05591V13.263H9.57793V11.0209Z" fill="#092C6D"/>
<path d="M12.9463 11.0209H10.4248V13.263H12.9463V11.0209Z" fill="#092C6D"/>
<path d="M16.3123 11.0209H13.7903V13.263H16.3123V11.0209Z" fill="#092C6D"/>
<path d="M6.2119 14.0149H3.69043V16.2571H6.2119V14.0149Z" fill="#092C6D"/>
<path d="M9.57793 14.0149H7.05591V16.2571H9.57793V14.0149Z" fill="#092C6D"/>
<path d="M12.9463 14.0149H10.4248V16.2571H12.9463V14.0149Z" fill="#092C6D"/>
<path d="M16.3123 14.0149H13.7903V16.2571H16.3123V14.0149Z" fill="#092C6D"/>
</svg>
