<svg width="20" height="20" viewBox="0 0 20 20" fill="none" xmlns="http://www.w3.org/2000/svg">
<g clip-path="url(#clip0)">
<path d="M15.9198 17.9315L19.1971 15.1974C19.4025 15.0256 19.5605 14.8227 19.6677 14.6106C19.8259 14.4173 19.9247 14.1703 19.9245 13.8979C19.9253 13.5389 19.7572 13.2246 19.5016 13.0207C19.4156 12.9061 19.3151 12.798 19.1969 12.6993L15.9176 9.96686C15.2914 9.44362 14.4706 9.42068 14.0859 9.91459C13.701 10.4089 13.8966 11.2322 14.524 11.7539L15.7687 12.7926L8.74428 12.7953C8.15341 12.7936 7.67425 13.2908 7.67424 13.9016C7.67548 14.5131 8.15475 15.0073 8.74502 15.0071L15.8895 15.007L14.5248 16.1457C13.8987 16.6689 13.7031 17.492 14.088 17.9863C14.4735 18.4794 15.2937 18.4548 15.9198 17.9315Z" fill="#092C6D"/>
<path d="M6.12138 4.03861C5.7359 3.54448 4.91593 3.56871 4.2894 4.09174L1.01201 6.82587C0.806659 6.99767 0.648686 7.20048 0.541077 7.4134C0.383033 7.60624 0.284475 7.85286 0.28468 8.12533C0.284257 8.48456 0.451982 8.79858 0.707573 9.00254C0.793553 9.11708 0.894353 9.22542 1.01263 9.32414L4.29147 12.0574C4.91772 12.5796 5.73849 12.6026 6.12322 12.1086C6.50774 11.615 6.31257 10.791 5.6851 10.2692L4.44018 9.23098L11.4644 9.22872C12.0557 9.22954 12.5353 8.73268 12.5348 8.12159C12.5336 7.51006 12.0547 7.01603 11.4641 7.01608L4.31922 7.01705L5.68418 5.87797C6.31068 5.35597 6.50707 4.53232 6.12138 4.03861Z" fill="#092C6D"/>
</g>
<defs>
<clipPath id="clip0">
<rect width="20" height="20" fill="white"/>
</clipPath>
</defs>
</svg>
